<svg width="1000" height="360" viewBox="0 0 1000 360" fill="none" xmlns="http://www.w3.org/2000/svg" role="img" aria-labelledby="title desc">
  <title id="title">Piriya Tharatum profile header</title>
  <desc id="desc">A terminal-style introduction for Piriya Tharatum, a cloud solutions trainee and ICT student focused on cloud, cybersecurity, and infrastructure.</desc>
  <defs>
    <linearGradient id="panel" x1="0" y1="0" x2="1000" y2="360" gradientUnits="userSpaceOnUse">
      <stop stop-color="#07111F"/>
      <stop offset="0.58" stop-color="#0B1729"/>
      <stop offset="1" stop-color="#0D2038"/>
    </linearGradient>
    <linearGradient id="accent" x1="112" y1="0" x2="878" y2="0" gradientUnits="userSpaceOnUse">
      <stop stop-color="#38BDF8"/>
      <stop offset="0.5" stop-color="#60A5FA"/>
      <stop offset="1" stop-color="#A78BFA"/>
    </linearGradient>
    <filter id="shadow" x="-10%" y="-20%" width="120%" height="150%">
      <feDropShadow dx="0" dy="16" stdDeviation="18" flood-color="#020617" flood-opacity="0.55"/>
    </filter>
  </defs>

  <rect width="1000" height="360" rx="26" fill="#020617"/>
  <circle cx="90" cy="52" r="90" fill="#0EA5E9" fill-opacity="0.08"/>
  <circle cx="915" cy="330" r="160" fill="#8B5CF6" fill-opacity="0.08"/>

  <g filter="url(#shadow)">
    <rect x="42" y="32" width="916" height="296" rx="18" fill="url(#panel)" stroke="#334155"/>
    <path d="M42 88H958" stroke="#334155"/>
    <circle cx="76" cy="60" r="7" fill="#FB7185"/>
    <circle cx="100" cy="60" r="7" fill="#FBBF24"/>
    <circle cx="124" cy="60" r="7" fill="#4ADE80"/>
    <text x="500" y="66" text-anchor="middle" fill="#94A3B8" font-family="Consolas, 'Courier New', monospace" font-size="16">piriya@cloud-lab: ~/profile</text>
  </g>

  <g font-family="Consolas, 'Courier New', monospace" font-size="21">
    <text x="82" y="128" fill="#64748B">01</text>
    <text x="128" y="128" fill="#C4B5FD">const</text>
    <text x="196" y="128" fill="#F8FAFC">piriya</text>
    <text x="283" y="128" fill="#94A3B8">=</text>
    <text x="308" y="128" fill="#F8FAFC">{</text>

    <text x="82" y="168" fill="#64748B">02</text>
    <text x="154" y="168" fill="#7DD3FC">role</text>
    <text x="208" y="168" fill="#94A3B8">:</text>
    <text x="232" y="168" fill="#86EFAC">"Cloud Solutions Trainee"</text>
    <text x="578" y="168" fill="#94A3B8">,</text>

    <text x="82" y="208" fill="#64748B">03</text>
    <text x="154" y="208" fill="#7DD3FC">education</text>
    <text x="272" y="208" fill="#94A3B8">:</text>
    <text x="296" y="208" fill="#86EFAC">"Third-year ICT @ Mahidol University"</text>
    <text x="788" y="208" fill="#94A3B8">,</text>

    <text x="82" y="248" fill="#64748B">04</text>
    <text x="154" y="248" fill="#7DD3FC">focus</text>
    <text x="220" y="248" fill="#94A3B8">:</text>
    <text x="244" y="248" fill="#F8FAFC">[</text>
    <text x="260" y="248" fill="#FDE68A">"Cloud"</text>
    <text x="347" y="248" fill="#94A3B8">,</text>
    <text x="370" y="248" fill="#FDE68A">"Cybersecurity"</text>
    <text x="551" y="248" fill="#94A3B8">,</text>
    <text x="574" y="248" fill="#FDE68A">"Infrastructure"</text>
    <text x="762" y="248" fill="#F8FAFC">]</text>
    <text x="778" y="248" fill="#94A3B8">,</text>

    <text x="82" y="288" fill="#64748B">05</text>
    <text x="154" y="288" fill="#7DD3FC">mission</text>
    <text x="244" y="288" fill="#94A3B8">:</text>
    <text x="268" y="288" fill="#86EFAC">"Build secure, useful solutions"</text>

    <text x="82" y="312" fill="#64748B">06</text>
    <text x="128" y="312" fill="#F8FAFC">};</text>
  </g>

  <rect x="42" y="324" width="916" height="4" rx="2" fill="url(#accent)"/>
</svg>
